<svg width="28" height="30" viewBox="0 0 28 30" fill="none" xmlns="http://www.w3.org/2000/svg">
<path fill-rule="evenodd" clip-rule="evenodd" d="M13.4646 0.269735C13.7955 0.076755 14.2045 0.076755 14.5354 0.269735L17.7229 2.12911C18.2297 2.42478 18.4009 3.07537 18.1053 3.58224C17.8096 4.08911 17.159 4.26031 16.6521 3.96464L14 2.41756L11.3479 3.96464C10.841 4.26031 10.1904 4.08911 9.89473 3.58224C9.59906 3.07537 9.77027 2.42478 10.2771 2.12911L13.4646 0.269735ZM5.35527 6.23026C5.65094 6.73713 5.47973 7.38772 4.97286 7.68339L3.35867 8.625L4.97286 9.56661C5.47973 9.86228 5.65094 10.5129 5.35527 11.0197C5.05959 11.5266 4.409 11.6978 3.90214 11.4021L2.3125 10.4749V11.8125C2.3125 12.3993 1.8368 12.875 1.25 12.875C0.663197 12.875 0.1875 12.3993 0.1875 11.8125V8.625C0.1875 8.2471 0.388218 7.89765 0.714637 7.70723L3.90214 5.84786C4.409 5.55219 5.05959 5.72339 5.35527 6.23026ZM22.6447 6.23026C22.9404 5.72339 23.591 5.55219 24.0979 5.84786L27.2854 7.70723C27.6118 7.89765 27.8125 8.2471 27.8125 8.625V11.8125C27.8125 12.3993 27.3368 12.875 26.75 12.875C26.1632 12.875 25.6875 12.3993 25.6875 11.8125V10.4749L24.0979 11.4021C23.591 11.6978 22.9404 11.5266 22.6447 11.0197C22.3491 10.5129 22.5203 9.86228 23.0271 9.56661L24.6413 8.625L23.0271 7.68339C22.5203 7.38772 22.3491 6.73713 22.6447 6.23026ZM9.89473 13.6678C10.1904 13.1609 10.841 12.9897 11.3479 13.2854L14 14.8324L16.6521 13.2854C17.159 12.9897 17.8096 13.1609 18.1053 13.6678C18.4009 14.1746 18.2297 14.8252 17.7229 15.1209L15.0625 16.6728V19.25C15.0625 19.8368 14.5868 20.3125 14 20.3125C13.4132 20.3125 12.9375 19.8368 12.9375 19.25V16.6728L10.2771 15.1209C9.77027 14.8252 9.59906 14.1746 9.89473 13.6678ZM1.25 17.125C1.8368 17.125 2.3125 17.6007 2.3125 18.1875V20.7647L4.97286 22.3166C5.47973 22.6123 5.65094 23.2629 5.35527 23.7697C5.05959 24.2766 4.409 24.4478 3.90214 24.1521L0.714637 22.2928C0.388218 22.1024 0.1875 21.7529 0.1875 21.375V18.1875C0.1875 17.6007 0.663197 17.125 1.25 17.125ZM26.75 17.125C27.3368 17.125 27.8125 17.6007 27.8125 18.1875V21.375C27.8125 21.7529 27.6118 22.1024 27.2854 22.2928L24.0979 24.1521C23.591 24.4478 22.9404 24.2766 22.6447 23.7697C22.3491 23.2629 22.5203 22.6123 23.0271 22.3166L25.6875 20.7647V18.1875C25.6875 17.6007 26.1632 17.125 26.75 17.125ZM14 24.5625C14.5868 24.5625 15.0625 25.0382 15.0625 25.625V26.9626L16.6521 26.0354C17.159 25.7397 17.8096 25.9109 18.1053 26.4178C18.4009 26.9246 18.2297 27.5752 17.7229 27.8709L14.5354 29.7303C14.2045 29.9232 13.7955 29.9232 13.4646 29.7303L10.2771 27.8709C9.77027 27.5752 9.59906 26.9246 9.89473 26.4178C10.1904 25.9109 10.841 25.7397 11.3479 26.0354L12.9375 26.9626V25.625C12.9375 25.0382 13.4132 24.5625 14 24.5625Z" fill="black"/>
</svg>
