<svg width="86" height="86" viewBox="0 0 86 86" fill="none" xmlns="http://www.w3.org/2000/svg">
<path d="M42.5387 28.8109C34.7256 28.8109 28.3496 35.187 28.3496 43C28.3496 50.8131 34.7256 57.1892 42.5387 57.1892C50.3518 57.1892 56.7279 50.8131 56.7279 43C56.7279 35.187 50.3518 28.8109 42.5387 28.8109ZM85.0956 43C85.0956 37.1243 85.1488 31.3017 84.8188 25.4366C84.4888 18.6241 82.9347 12.578 77.9531 7.59633C72.9608 2.60404 66.9253 1.06059 60.1128 0.730607C54.2371 0.400627 48.4145 0.45385 42.5494 0.45385C36.6736 0.45385 30.851 0.400627 24.9859 0.730607C18.1734 1.06059 12.1273 2.61469 7.14565 7.59633C2.15336 12.5886 0.609904 18.6241 0.279924 25.4366C-0.0500567 31.3123 0.00316615 37.1349 0.00316615 43C0.00316615 48.8652 -0.0500567 54.6984 0.279924 60.5635C0.609904 67.376 2.16401 73.4221 7.14565 78.4038C12.1379 83.396 18.1734 84.9395 24.9859 85.2695C30.8617 85.5995 36.6842 85.5462 42.5494 85.5462C48.4251 85.5462 54.2477 85.5995 60.1128 85.2695C66.9253 84.9395 72.9714 83.3854 77.9531 78.4038C82.9454 73.4115 84.4888 67.376 84.8188 60.5635C85.1594 54.6984 85.0956 48.8758 85.0956 43ZM42.5387 64.832C30.4572 64.832 20.7068 55.0816 20.7068 43C20.7068 30.9185 30.4572 21.1681 42.5387 21.1681C54.6203 21.1681 64.3706 30.9185 64.3706 43C64.3706 55.0816 54.6203 64.832 42.5387 64.832ZM65.2648 25.3727C62.444 25.3727 60.1661 23.0948 60.1661 20.274C60.1661 17.4532 62.444 15.1752 65.2648 15.1752C68.0856 15.1752 70.3635 17.4532 70.3635 20.274C70.3644 20.9438 70.233 21.6072 69.9771 22.2262C69.7212 22.8451 69.3456 23.4076 68.872 23.8812C68.3984 24.3548 67.836 24.7304 67.217 24.9863C66.598 25.2422 65.9346 25.3735 65.2648 25.3727Z" fill="white"/>
</svg>
