<svg width="100" height="86" viewBox="0 0 100 86" fill="none" xmlns="http://www.w3.org/2000/svg">
<path d="M92.0289 0H7.14967C3.26039 0 0.100342 2.78348 0.100342 6.20045V79.7996C0.100342 83.2165 3.26039 86 7.14967 86H92.0289C95.9182 86 99.1003 83.2165 99.1003 79.7996V6.20045C99.1003 2.78348 95.9182 0 92.0289 0ZM30.0213 73.7143H15.3481V32.6723H30.0434V73.7143H30.0213ZM22.6847 27.067C17.9778 27.067 14.1769 23.746 14.1769 19.6763C14.1769 15.6067 17.9778 12.2857 22.6847 12.2857C27.3695 12.2857 31.1925 15.6067 31.1925 19.6763C31.1925 23.7652 27.3916 27.067 22.6847 27.067ZM85.0238 73.7143H70.3506V53.75C70.3506 48.9893 70.2401 42.8656 62.7267 42.8656C55.0807 42.8656 53.9095 48.0487 53.9095 53.4045V73.7143H39.2363V32.6723H53.3128V38.2777H53.5117C55.4785 35.0527 60.2738 31.6549 67.4115 31.6549C82.2615 31.6549 85.0238 40.1589 85.0238 51.2161V73.7143Z" fill="white"/>
</svg>
