<svg width="59" height="59" viewBox="0 0 59 59" fill="none" xmlns="http://www.w3.org/2000/svg">
<path fill-rule="evenodd" clip-rule="evenodd" d="M27.5342 3.93364C12.3276 3.93364 0 16.2608 0 31.4668C0 46.6729 12.3276 59 27.5342 59C42.7408 59 55.0684 46.6729 55.0684 31.4668C55.0684 27.77 54.3381 24.2438 53.0163 21.0231L52.7705 21.2689C52.1284 21.911 51.2839 22.3118 50.3804 22.4019L47.3834 22.7009C48.569 25.3814 49.2286 28.3466 49.2286 31.4662C49.2286 43.4476 39.5154 53.1597 27.5342 53.1597C15.5523 53.1597 5.83982 43.447 5.83982 31.4662C5.83982 19.4854 15.553 9.77259 27.5342 9.77259C30.6526 9.77259 33.6172 10.4322 36.2972 11.6164L36.5955 8.62205C36.6857 7.71797 37.0884 6.8729 37.7299 6.23082L37.9757 5.98502C34.7555 4.66391 31.2305 3.93364 27.5342 3.93364ZM37.5723 18.6442L38.5523 8.81727C38.599 8.36458 38.8013 7.94301 39.1204 7.62133L46.1666 0.57541C46.7114 0.0338647 47.5176 -0.144488 48.2369 0.122068C48.9562 0.387977 49.4608 1.04821 49.5185 1.81221L50.075 8.92298L57.1905 9.48204C57.95 9.54236 58.6116 10.0411 58.8782 10.7616C59.1447 11.4815 58.9651 12.2909 58.4261 12.8325L51.3799 19.8784C51.0608 20.2007 50.6379 20.3998 50.1852 20.4452L40.356 21.4252L28.926 32.8567C28.5434 33.24 28.0388 33.4332 27.5342 33.4332C27.0296 33.4332 26.525 33.24 26.1423 32.8567C25.377 32.0888 25.377 30.8436 26.1423 30.075L37.5723 18.6442ZM27.5342 23.5998C28.2379 23.5998 28.9202 23.6926 29.5694 23.8664L24.7518 28.6845C23.2179 30.2183 23.2185 32.7095 24.7498 34.2452C25.4886 34.9859 26.4887 35.3997 27.5342 35.3997C28.5791 35.3997 29.5779 34.9859 30.3166 34.2472L35.1336 29.4291C35.3074 30.0789 35.4008 30.7618 35.4008 31.4668C35.4008 35.8115 31.879 39.3332 27.5342 39.3332C23.1894 39.3332 19.6676 35.8115 19.6676 31.4668C19.6676 27.1221 23.1894 23.5998 27.5342 23.5998ZM27.5342 13.7054C30.5514 13.7054 33.3928 14.4591 35.8808 15.786L35.6849 17.7498L32.6191 20.8156C31.0793 20.0788 29.3548 19.6663 27.5335 19.6663C21.0166 19.6663 15.7333 24.9495 15.7333 31.4662C15.7333 37.9829 21.0166 43.266 27.5335 43.266C34.0505 43.266 39.3338 37.9829 39.3338 31.4662C39.3338 29.6444 38.9207 27.9192 38.1832 26.3782L41.2497 23.3112L43.2123 23.1154C44.5413 25.6045 45.2949 28.4465 45.2949 31.4649C45.2949 41.2736 37.3427 49.2256 27.5335 49.2256C17.7244 49.2256 9.77216 41.2736 9.77216 31.4649C9.77216 21.6561 17.7251 13.7054 27.5342 13.7054Z" fill="white"/>
</svg>
