<svg width="66" height="50" viewBox="0 0 66 50" fill="none" xmlns="http://www.w3.org/2000/svg">
<path d="M33.0011 34.0909C38.0796 34.0909 42.1965 30.0208 42.1965 25C42.1965 19.9792 38.0796 15.9091 33.0011 15.9091C27.9226 15.9091 23.8057 19.9792 23.8057 25C23.8057 30.0208 27.9226 34.0909 33.0011 34.0909Z" fill="white"/>
<path fill-rule="evenodd" clip-rule="evenodd" d="M0.275901 23.3233C4.83453 9.77488 17.761 0 33.0027 0C48.2373 0 61.1588 9.7658 65.7231 23.3044C66.092 24.3985 66.0923 25.5823 65.7241 26.6767C61.1655 40.2251 48.239 50 32.9973 50C17.7627 50 4.84119 40.2342 0.276905 26.6956C-0.0919584 25.6015 -0.0923094 24.4177 0.275901 23.3233ZM49.0931 25C49.0931 33.7863 41.8884 40.9091 33.0011 40.9091C24.1138 40.9091 16.9091 33.7863 16.9091 25C16.9091 16.2137 24.1138 9.09091 33.0011 9.09091C41.8884 9.09091 49.0931 16.2137 49.0931 25Z" fill="white"/>
</svg>
