<svg width="103" height="82" viewBox="0 0 103 82" fill="none" xmlns="http://www.w3.org/2000/svg">
<path d="M99.969 12.8302C98.7959 7.77996 95.3395 3.80254 90.9511 2.45274C82.9967 0 51.1003 0 51.1003 0C51.1003 0 19.2042 0 11.2496 2.45274C6.86113 3.80275 3.40482 7.77996 2.23173 12.8302C0.100342 21.9841 0.100342 41.0829 0.100342 41.0829C0.100342 41.0829 0.100342 60.1816 2.23173 69.3355C3.40482 74.3857 6.86113 78.1975 11.2496 79.5473C19.2042 82 51.1003 82 51.1003 82C51.1003 82 82.9965 82 90.9511 79.5473C95.3395 78.1975 98.7959 74.3857 99.969 69.3355C102.1 60.1816 102.1 41.0829 102.1 41.0829C102.1 41.0829 102.1 21.9841 99.969 12.8302ZM40.6684 58.4231V23.7426L67.3274 41.0833L40.6684 58.4231Z" fill="white"/>
</svg>
